Coordinates
version=1
nRows=14
nColumns=42
inDegrees=yes

Units are S.I. units (second, meters, Newtons, ...)
Angles are in degrees.

endheader
time	pelvis_tilt	pelvis_list	pelvis_rotation	pelvis_tx	pelvis_ty	pelvis_tz	hip_flexion_r	hip_adduction_r	hip_rotation_r	knee_angle_r	knee_vv_r	knee_rot_r	ankle_angle_r	subtalar_angle_r	mtp_angle_r	hip_flexion_l	hip_adduction_l	hip_rotation_l	knee_angle_l	knee_vv_l	knee_rot_l	ankle_angle_l	subtalar_angle_l	mtp_angle_l	lumbar_extension	lumbar_bending	lumbar_rotation	arm_flex_r	arm_add_r	arm_rot_r	elbow_flex_r	pro_sup_r	wrist_flex_r	wrist_dev_r	arm_flex_l	arm_add_l	arm_rot_l	elbow_flex_l	pro_sup_l	wrist_flex_l	wrist_dev_l
      5.05000000	     10.79861142	      5.77300627	     -4.24762922	      0.12001611	      0.91322200	     -0.04910118	      8.88627036	     -7.64031485	      3.45380904	    -64.94319060	      0.00000000	      0.00000000	     -2.28986926	      0.00000000	      0.00000000	     -2.11592205	     10.87020094	     -4.72618645	     -9.91386643	      0.00000000	      0.00000000	      0.64324487	      0.00000000	      0.00000000	    -25.45943338	     -6.57688739	     -1.15799437	      5.30113549	    -10.68987836	     36.63829662	      6.78821731	     86.51662706	      0.00000000	      0.00000000	     17.60141530	    -17.80879061	     33.98776380	     16.32219221	     85.94366927	      0.00000000	      0.00000000
      5.06000000	     10.53461895	      5.56377977	     -4.07181147	      0.11876964	      0.91385042	     -0.05036685	     10.22649585	     -7.44905010	      2.93372538	    -64.41319082	      0.00000000	      0.00000000	     -0.20912074	      0.00000000	      0.00000000	     -2.52705527	     10.74603831	     -4.49674748	     -9.60043297	      0.00000000	      0.00000000	      0.86745670	      0.00000000	      0.00000000	    -25.28578474	     -6.13538722	     -1.52675010	      4.44863097	    -10.48538650	     37.25944556	      6.34546701	     86.51662706	      0.00000000	      0.00000000	     18.08590276	    -18.22593156	     32.83210292	     17.37575330	     85.94366927	      0.00000000	      0.00000000
      5.07000000	     10.25512836	      5.33873725	     -3.86867419	      0.11747118	      0.91439807	     -0.05161254	     11.48453012	     -7.26761798	      2.33478204	    -63.56461918	      0.00000000	      0.00000000	      1.57256181	      0.00000000	      0.00000000	     -2.92488661	     10.59632151	     -4.24418536	     -9.27191106	      0.00000000	      0.00000000	      1.07865269	      0.00000000	      0.00000000	    -25.08406322	     -5.67333238	     -1.88553166	      3.58394104	    -10.30586684	     37.75973797	      5.94209620	     86.51662706	      0.00000000	      0.00000000	     18.52897309	    -18.63300287	     31.64531073	     18.46074555	     85.94366927	      0.00000000	      0.00000000
      5.08000000	      9.98326320	      5.09758078	     -3.65533352	      0.11614212	      0.91489997	     -0.05280482	     12.62815160	     -7.09288889	      1.67291673	    -62.40189026	      0.00000000	      0.00000000	      3.06730783	      0.00000000	      0.00000000	     -3.33868367	     10.41780558	     -4.00911874	     -8.92514292	      0.00000000	      0.00000000	      1.28183096	      0.00000000	      0.00000000	    -24.87878658	     -5.19774361	     -2.22703268	      2.71670841	    -10.14887714	     38.12752309	      5.57268025	     86.51662706	      0.00000000	      0.00000000	     18.92931771	    -19.02947557	     30.43575089	     19.58575955	     85.94366927	      0.00000000	      0.00000000
      5.09000000	      9.73975291	      4.84547447	     -3.44747038	      0.11484944	      0.91538195	     -0.05391965	     13.62465390	     -6.92292369	      0.96647589	    -60.92948278	      0.00000000	      0.00000000	      4.29363226	      0.00000000	      0.00000000	     -3.79684172	     10.21549039	     -3.82439052	     -8.55579159	      0.00000000	      0.00000000	      1.48005348	      0.00000000	      0.00000000	    -24.69064835	     -4.72098289	     -2.54834926	      1.85362406	    -10.01142456	     38.35862818	      5.23182263	     86.51662706	      0.00000000	      0.00000000	     19.28573615	    -19.41735974	     29.21635555	     20.75520576	     85.94366927	      0.00000000	      0.00000000
      5.10000000	      9.54000811	      4.59199652	     -3.25309824	      0.11363828	      0.91584439	     -0.05493438	     14.44826638	     -6.75794138	      0.23714150	    -59.15351381	      0.00000000	      0.00000000	      5.26599952	      0.00000000	      0.00000000	     -4.32048913	     10.00052674	     -3.70875153	     -8.16009401	      0.00000000	      0.00000000	      1.67538183	      0.00000000	      0.00000000	    -24.53580910	     -4.25866415	     -2.85163100	      0.99934524	     -9.88960945	     38.45577930	      4.91521892	     86.51662706	      0.00000000	      0.00000000	     19.59685932	    -19.80116910	     28.00491278	     21.96681537	     85.94366927	      0.00000000	      0.00000000
      5.11000000	      9.39182916	      4.34923539	     -3.07004810	      0.11249748	      0.91626923	     -0.05583262	     15.08622164	     -6.60073941	     -0.49014412	    -57.08406702	      0.00000000	      0.00000000	      5.99173673	      0.00000000	      0.00000000	     -4.91952593	      9.78575582	     -3.66382837	     -7.73725072	      0.00000000	      0.00000000	      1.86983473	      0.00000000	      0.00000000	    -24.42475694	     -3.82622755	     -3.14408429	      0.15794871	     -9.77816518	     38.42735149	      4.62046288	     86.51662706	      0.00000000	      0.00000000	     19.86337901	    -20.18685084	     26.82328080	     23.21145653	     85.94366927	      0.00000000	      0.00000000
      5.12000000	      9.29538481	      4.12901099	     -2.88861724	      0.11140455	      0.91663797	     -0.05661861	     15.54104736	     -6.45566557	     -1.18896241	    -54.73802350	      0.00000000	      0.00000000	      6.47337140	      0.00000000	      0.00000000	     -5.59086910	      9.58233904	     -3.67450931	     -7.29097315	      0.00000000	      0.00000000	      2.06592969	      0.00000000	      0.00000000	    -24.36042126	     -3.43540881	     -3.43644357	     -0.66605412	     -9.67081487	     38.28589436	      4.34711365	     86.51662706	      0.00000000	      0.00000000	     20.09084390	    -20.58021573	     25.69527465	     24.47478410	     85.94366927	      0.00000000	      0.00000000
      5.13000000	      9.24456563	      3.93968393	     -2.69627837	      0.11035426	      0.91693954	     -0.05730522	     15.82886158	     -6.32647239	     -1.83432395	    -52.14114600	      0.00000000	      0.00000000	      6.71401040	      0.00000000	      0.00000000	     -6.31912144	      9.39831971	     -3.71277503	     -6.82941659	      0.00000000	      0.00000000	      2.26672863	      0.00000000	      0.00000000	    -24.33766608	     -3.09246592	     -3.73947749	     -1.46743894	     -9.56170022	     38.04681461	      4.09599639	     86.51662706	      0.00000000	      0.00000000	     20.28928664	    -20.98471386	     24.64393143	     25.73941741	     85.94366927	      0.00000000	      0.00000000
      5.14000000	      9.22690933	      3.78470652	     -2.48229375	      0.10933573	      0.91715946	     -0.05790164	     15.97525530	     -6.21396940	     -2.40557443	    -49.32774096	      0.00000000	      0.00000000	      6.72368236	      0.00000000	      0.00000000	     -7.08121566	      9.23770833	     -3.74443573	     -6.36458113	      0.00000000	      0.00000000	      2.47553012	      0.00000000	      0.00000000	    -24.34552219	     -2.79862476	     -4.06006914	     -2.24083331	     -9.44703679	     37.72745563	      3.86808841	     86.51662706	      0.00000000	      0.00000000	     20.46998310	    -21.39963161	     23.68888426	     26.98689420	     85.94366927	      0.00000000	      0.00000000
      5.15000000	      9.22519778	      3.66344995	     -2.24118429	      0.10832836	      0.91727292	     -0.05841625	     16.01060717	     -6.11462785	     -2.88784872	    -46.33716157	      0.00000000	      0.00000000	      6.52496099	      0.00000000	      0.00000000	     -7.85201385	      9.10026680	     -3.73694973	     -5.91094241	      0.00000000	      0.00000000	      2.69545943	      0.00000000	      0.00000000	    -24.37048977	     -2.55149893	     -4.39879938	     -2.98193272	     -9.32604884	     37.34654010	      3.66347157	     86.51662706	      0.00000000	      0.00000000	     20.64248248	    -21.82009862	     22.84425185	     28.19933672	     85.94366927	      0.00000000	      0.00000000
      5.16000000	      9.22269992	      3.57283711	     -1.97371676	      0.10732690	      0.91725808	     -0.05885911	     15.96516240	     -6.02141931	     -3.27091180	    -43.20836856	      0.00000000	      0.00000000	      6.15645926	      0.00000000	      0.00000000	     -8.60747760	      8.98265370	     -3.66606208	     -5.48281630	      0.00000000	      0.00000000	      2.92913736	      0.00000000	      0.00000000	    -24.39881224	     -2.34647364	     -4.74972759	     -3.68845100	     -9.20068419	     36.92367500	      3.48083314	     86.51662706	      0.00000000	      0.00000000	     20.81333326	    -22.23873512	     22.11749355	     29.36068117	     85.94366927	      0.00000000	      0.00000000
      5.17000000	      9.20672379	      3.50897235	     -1.68528505	      0.10633526	      0.91711570	     -0.05924415	     15.86385831	     -5.92671595	     -3.54610367	    -39.97501169	      0.00000000	      0.00000000	      5.67290803	      0.00000000	      0.00000000	     -9.32756209	      8.88025591	     -3.51972249	     -5.09225021	      0.00000000	      0.00000000	      3.17841949	      0.00000000	      0.00000000	    -24.41753258	     -2.17816681	     -5.10240810	     -4.35991593	     -9.07422090	     36.47860807	      3.31771296	     86.51662706	      0.00000000	      0.00000000	     20.98622019	    -22.64744356	     21.50955446	     30.45721078	     85.94366927	      0.00000000	      0.00000000
      5.18000000	      9.16891596	      3.46815777	     -1.38303159	      0.10534757	      0.91686256	     -0.05957927	     15.72238605	     -5.82576752	     -3.70394273	    -36.66339100	      0.00000000	      0.00000000	      5.14094595	      0.00000000	      0.00000000	     -9.99883865	      8.78903109	     -3.29870538	     -4.74789541	      0.00000000	      0.00000000	      3.44413879	      0.00000000	      0.00000000	    -24.41571050	     -2.04215415	     -5.44547917	     -4.99640398	     -8.94957820	     36.03017427	      3.17124492	     86.51662706	      0.00000000	      0.00000000	     21.16259469	    -23.03803564	     21.01617407	     31.47733522	     85.94366927	      0.00000000	      0.00000000
